<?xml version="1.0" encoding="UTF-8"?>
<svg xmlns="http://www.w3.org/2000/svg" xmlns:xlink="http://www.w3.org/1999/xlink" width="45pt" height="45pt" viewBox="0 0 45 45" version="1.1">
<g id="surface1">
<path style=" stroke:none;fill-rule:nonzero;fill:rgb(255, 94, 0);fill-opacity:1;" d="M 38.542969 18.355469 L 23.214844 0.316406 C 22.859375 -0.105469 22.140625 -0.105469 21.785156 0.316406 L 6.457031 18.355469 C 5.917969 18.988281 5.625 19.789062 5.625 20.617188 L 5.625 20.875 C 5.625 22.800781 7.191406 24.367188 9.117188 24.367188 C 10.15625 24.367188 11.132812 23.910156 11.796875 23.109375 L 18.75 14.765625 L 18.75 41.25 C 18.75 43.316406 20.433594 45 22.5 45 C 24.566406 45 26.25 43.316406 26.25 41.25 L 26.25 14.765625 L 33.203125 23.109375 C 33.867188 23.910156 34.84375 24.367188 35.882812 24.367188 C 37.808594 24.367188 39.375 22.800781 39.375 20.875 L 39.375 20.617188 C 39.375 19.789062 39.082031 18.988281 38.542969 18.355469 Z M 38.542969 18.355469 "/>
</g>
</svg>
